# xmcd
#
# Track frame offsets:
#	225
#	13143
#	24081
#	35483
#	46380
#	58455
#	70886
#	82814
#	96243
#	110128
#	122293
#	133931
#	144293
#	157213
#
# Disc length: 2267 seconds
#
# Revision: 0
# Processed by: cddbd v1.5.1PL0 Copyright (c) Steve Scherf et al.
# Submitted via: EasyCDDAExtractor 7.5.0.1
#
DISCID=c208d80e
DTITLE=Various Artist - Stars der Volksmusik Vol.1
DYEAR=2000
DGENRE=Volksmusik
TTITLE0=Ursprung Buam - Zillertaler Polterabend
TTITLE1=Die Mooskirchner - Unsere Tante Mizzi
TTITLE2=Orig. Mölltaler Vagabunden - Immer locker vom Hocker
TTITLE3=Marc Pircher - Heit is wieder so a Tag
TTITLE4=Willy Keuschingg - Der alte Bauernschmied
TTITLE5=Orig. Südtiroler Spitzbuam - Pfeffer im Bluat
TTITLE6=Orig. Bergland Duo - Ja, die Berge
TTITLE7=Orig. Fehringer Spitzbuam - Der schönste Mann im Dorf
TTITLE8=Erich Edlinger - Salzburg Lied
TTITLE9=Peter Kaufmann Quintett - Ja, die Musi spielt heut' auf
TTITLE10=Orig. Alpenoberkrainer - Schöne Urlaubszeit
TTITLE11=Die Obersteirer aus Irding - Irgendwer hat irgendwen
TTITLE12=Orig. Jaklinger mit Brigitte - Mein erstes Rendezvous
TTITLE13=Die Muntermacher - Die Harmonika vom Großpapa
EXTD=
EXTT0=
EXTT1=
EXTT2=
EXTT3=
EXTT4=
EXTT5=
EXTT6=
EXTT7=
EXTT8=
EXTT9=
EXTT10=
EXTT11=
EXTT12=
EXTT13=
PLAYORDER=
